<svg width="34" height="34" viewBox="0 0 34 34" fill="none" xmlns="http://www.w3.org/2000/svg">
<path d="M15.0938 22.3098C15.9996 21.2166 16.6159 20.0228 16.9208 18.7871V22.3098H15.0938Z" fill="white"/>
<path d="M16.8129 19.5343V22.2352H15.284C15.9689 21.3849 16.4815 20.4746 16.8129 19.5343ZM17.0338 16.9863C17.0338 18.9524 16.2583 20.797 14.9062 22.3851H17.0338V16.9863Z" fill="white"/>
<path d="M24.9852 16.9883C24.9852 18.8808 24.5057 20.6985 23.6265 22.3871C23.1846 23.2359 22.6411 24.0532 22.0049 24.83C21.1366 25.8948 20.096 26.8861 18.9097 27.7859C18.3198 28.2343 17.6923 28.6602 17.0318 29.0606C14.9992 30.2963 12.6508 31.2981 10.0792 32.0045C9.73454 31.7645 9.40094 31.5201 9.07839 31.2696V32.2624C7.86329 32.5533 6.60179 32.7813 5.30495 32.9373C3.12881 33.1982 1.54415 32.7045 1.27455 30.5367L1.125 27.7859C2.49696 27.7859 3.89877 27.7781 5.16911 27.5561L5.09948 27.4455C5.76448 27.9958 7.85275 26.9461 9.18885 26.4212C10.2692 25.9968 11.1573 25.4089 12.0587 24.83C13.17 24.1147 15.1801 22.5007 15.9534 21.5949L17.0318 22.3871V16.9883C17.0318 15.0222 17.8072 13.1776 19.1593 11.5894C19.9326 10.6836 20.8936 9.86183 22.0049 9.14648C22.6411 9.92331 23.1846 10.7406 23.6265 11.5894C24.5057 13.2781 24.9852 15.0957 24.9852 16.9883Z" fill="white" stroke="white" stroke-miterlimit="10"/>
<path d="M24.9852 1.71289V2.70567C24.6626 2.45523 24.329 2.21078 23.9844 1.97083C24.3136 1.87935 24.6472 1.79387 24.9852 1.71289Z" fill="white" stroke="white" stroke-miterlimit="10"/>
<path d="M32.93 3.39835V11.588H31.927C31.1929 7.77409 30.9417 6.3242 28.9577 6.52966L28.2905 6.62413C26.8788 6.87008 26.0967 7.04104 24.8662 7.52393C23.6511 7.97384 21.4418 8.42374 21.9963 9.14508C20.8851 9.86043 19.924 10.6822 19.1508 11.588C17.7987 13.1762 17.1336 18.3216 17.0232 16.9869C16.9129 15.6522 9.8431 17.9466 9.06986 16.9869C8.29661 16.0271 9.54927 13.2767 10.4286 11.588C10.8704 10.7392 11.4139 9.92191 12.0502 9.14508C12.9184 8.08032 13.959 7.08904 15.1454 6.18923C15.7352 5.74083 16.3627 5.31493 17.0232 4.91451C19.0558 3.67878 21.4042 2.677 23.9758 1.97066C24.3205 2.21061 24.6541 2.45505 24.9766 2.7055V1.71272C26.1917 1.42178 27.4532 1.19383 28.7501 1.03786C30.9262 0.776921 32.93 1.89717 32.93 3.39835Z" fill="white" stroke="white" stroke-miterlimit="10"/>
<path d="M10.0789 32.0024C9.74974 32.0939 9.41614 32.1794 9.07812 32.2604V31.2676C9.40068 31.518 9.73428 31.7625 10.0789 32.0024Z" fill="white" stroke="white" stroke-miterlimit="10"/>
<path d="M32.9329 11.5879C32.9329 11.5879 33.0827 17.258 32.9329 16.9867C32.783 16.7154 31.9453 11.6299 31.9453 11.6299C32.2679 11.6014 32.597 11.5879 32.9329 11.5879Z" fill="white" stroke="white" stroke-miterlimit="10"/>
<path d="M5.0921 27.443C3.82177 27.665 2.49178 27.7835 1.11983 27.7835C1.11983 27.7835 0.850218 16.9307 1.11983 16.8227C1.38943 16.7148 1.48704 20.2381 2.10737 22.3427C2.11179 22.3577 2.11842 22.3712 2.12284 22.3847C2.53398 23.6405 3.8159 26.4696 5.0921 27.443Z" fill="white" stroke="white" stroke-miterlimit="10"/>
</svg>
