<svg width="32" height="32" viewBox="0 0 32 32" fill="none" xmlns="http://www.w3.org/2000/svg">
<path d="M24.4917 20.7218C26.7108 22.9398 28.9419 25.1713 31.1849 27.416C31.9734 28.2047 32.2234 29.3493 31.7867 30.3747C31.0266 32.1587 28.7613 32.538 27.4187 31.1933C25.2201 28.9914 22.9818 26.7524 20.7038 24.4765C20.6961 24.469 20.6862 24.4642 20.6756 24.463C20.665 24.4618 20.6543 24.4642 20.6454 24.4699C13.698 29.035 4.44523 26.2047 1.10485 18.6493C-0.352815 15.353 -0.339481 11.6332 0.975669 8.31943C1.18514 7.79145 1.42266 7.29681 1.68825 6.83552C3.33066 3.98108 5.66787 1.97863 8.69988 0.828181C10.3795 0.191267 12.1633 -0.0782822 14.0513 0.0195336C18.6502 0.25796 22.7206 2.8473 24.9817 6.85303C27.2412 10.8554 27.2095 15.8415 24.9642 19.8256C24.8098 20.0996 24.6492 20.3716 24.4825 20.6417C24.4642 20.6706 24.4672 20.6973 24.4917 20.7218ZM22.664 13.3305C22.664 10.8549 21.6808 8.48063 19.9307 6.73008C18.1807 4.97953 15.807 3.99608 13.3321 3.99608C10.8571 3.99608 8.4835 4.97953 6.73343 6.73008C4.98336 8.48063 4.00018 10.8549 4.00018 13.3305C4.00018 15.8062 4.98336 18.1805 6.73343 19.931C8.4835 21.6816 10.8571 22.665 13.3321 22.665C15.807 22.665 18.1807 21.6816 19.9307 19.931C21.6808 18.1805 22.664 15.8062 22.664 13.3305Z" fill="white"/>
</svg>
